<?xml version="1.0" encoding="UTF-8" standalone="no"?>
<svg
   xmlns:dc="http://purl.org/dc/elements/1.1/"
   xmlns:cc="http://creativecommons.org/ns#"
   xmlns:rdf="http://www.w3.org/1999/02/22-rdf-syntax-ns#"
   xmlns:svg="http://www.w3.org/2000/svg"
   xmlns="http://www.w3.org/2000/svg"
   xmlns:sodipodi="http://sodipodi.sourceforge.net/DTD/sodipodi-0.dtd"
   xmlns:inkscape="http://www.inkscape.org/namespaces/inkscape"
   inkscape:version="1.0 (4035a4fb49, 2020-05-01)"
   sodipodi:docname="logo_text_box.svg"
   viewBox="0 0 2388.48 360.31998"
   height="360.31998"
   width="2388.48"
   id="svg1422"
   version="1.1">
  <metadata
     id="metadata1428">
    <rdf:RDF>
      <cc:Work
         rdf:about="">
        <dc:format>image/svg+xml</dc:format>
        <dc:type
           rdf:resource="http://purl.org/dc/dcmitype/StillImage" />
        <dc:title></dc:title>
      </cc:Work>
    </rdf:RDF>
  </metadata>
  <defs
     id="defs1426" />
  <sodipodi:namedview
     inkscape:current-layer="g1430"
     inkscape:window-maximized="1"
     inkscape:window-y="-9"
     inkscape:window-x="-9"
     inkscape:cy="383.98977"
     inkscape:cx="1186.4005"
     inkscape:zoom="0.51022968"
     showgrid="false"
     id="namedview1424"
     inkscape:window-height="1001"
     inkscape:window-width="1920"
     inkscape:pageshadow="2"
     inkscape:pageopacity="0"
     guidetolerance="10"
     gridtolerance="10"
     objecttolerance="10"
     borderopacity="1"
     bordercolor="#666666"
     pagecolor="#ffffff" />
  <g
     transform="translate(-8.1596066,203.50977)"
     id="g1430"
     inkscape:label="Image"
     inkscape:groupmode="layer">
    <path
       id="path1995"
       d="M 8.1596066,-23.349772 V -203.50977 H 1202.3997 2396.6397 V -23.349772 156.81022 H 1202.3997 8.1596066 Z m 2368.6400934,0 V -183.66977 H 1202.3997 27.999608 V -23.349772 136.97022 h 1174.400092 1174.4 z M 787.51964,74.989918 c -41.60163,-2.7285 -68.02253,-28.24563 -71.5057,-69.0597001 -0.20867,-2.44545 -0.32889,-25.7170299 -0.331,-64.0799899 l -0.003,-60.239998 h 20.79277 20.79277 l 0.0981,60.399998 0.098,60.3999899 0.6953,2.94218 c 2.14093,9.0596301 5.72102,15.6875401 11.43872,21.1767501 1.42349,1.36661 3.44682,3.0675 4.49626,3.77976 13.20886,8.96477 31.24131,8.5435 43.67008,-1.02021 2.77907,-2.13846 6.99721,-6.81692 8.91712,-9.8903 3.07904,-4.92884 5.33661,-11.4658301 6.08793,-17.6281801 0.24308,-1.99362 0.35143,-20.9276299 0.35207,-61.5199899 v -58.639998 h 20.8 20.8 v 60.142568 c 0,40.14652 -0.1144,61.5048699 -0.34406,64.2399899 -1.2488,14.8713701 -5.44564,27.5220701 -12.73069,38.3746701 -13.63661,20.31456 -37.21623,31.11196 -67.22922,30.78508 -2.91283,-0.0317 -6.01603,-0.1049 -6.89603,-0.16262 z m 672.32006,-0.10285 c -20.7555,-1.81457 -38.1915,-9.07806 -52.7834,-21.98845 l -1.5277,-1.3516 0.7828,-0.93032 c 0.4306,-0.51168 7.095,-7.86261 14.8099,-16.33541 l 14.027,-15.40509 0.9516,1.20701 c 0.5233,0.66386 2.1691,2.38899 3.6572,3.83364 9.476,9.19928 23.632,14.09349 36.4506,12.60219 16.5598,-1.92656 26.3866,-11.62107 23.6302,-23.3121 -1.0593,-4.4927901 -3.9613,-8.3428801 -8.599,-11.4084301 -5.1748,-3.42055 -10.5821,-5.62663 -25.1592,-10.26455 -11.3828,-3.6215899 -17.7975,-5.9451099 -23.36,-8.4614499 -17.8411,-8.0708 -27.4162,-19.21148 -30.2686,-35.21798 -0.6931,-3.88917 -0.9243,-11.32908 -0.4895,-15.75421 0.7531,-7.66507 2.4731,-13.81333 5.665,-20.25009 5.6899,-11.47376 14.6896,-20.097878 27.7119,-26.555268 10.5456,-5.22923 22.2206,-7.96169 35.7812,-8.37431 22.7083,-0.69097 42.8511,5.36595 58,17.44056 1.364,1.08719 2.48,2.05489 2.48,2.15043 0,0.12845 -24.1139,26.673128 -27.8277,30.632788 -0.5133,0.54728 -0.643,0.47159 -2.7664,-1.61423 -5.0389,-4.94973 -12.9003,-8.45653 -22.0459,-9.83417 -7.9297,-1.19448 -16.2156,0.0179 -23.1518,3.38767 -2.7323,1.32741 -3.747,2.03912 -5.7991,4.06772 -2.7217,2.69055 -3.9101,4.68868 -4.6467,7.81268 -1.6579,7.03175 1.2145,13.66845 7.8724,18.18979 4.4647,3.03194 10.1165,5.2347 24.2852,9.46506 15.1435,4.52143 20.1855,6.34196 27.04,9.76347 15.5221,7.74806 23.9702,18.70404 26.6084,34.5071399 0.6702,4.01474 0.9014,12.3249801 0.466,16.7523601 -0.8257,8.39595 -2.5813,14.73129 -5.9548,21.4883 -2.6641,5.33636 -5.5526,9.36833 -9.7596,13.62336 -10.5823,10.70307 -24.8929,17.16996 -43.52,19.6665 -4.3735,0.58616 -17.9762,0.86774 -22.56,0.46699 z m 433.6,-0.0316 c -46.9766,-3.53036 -81.4212,-32.79596 -89.8921,-76.3760501 -1.5107,-7.77196 -1.928,-12.6355599 -1.928,-22.4692099 0,-6.78338 0.1456,-10.30881 0.5685,-13.76 2.0809,-16.98293 7.0482,-30.88662 15.6301,-43.74909 18.3294,-27.471958 50.7485,-42.636428 88.9015,-41.584788 10.2023,0.28121 18.137,1.34601 27.04,3.62862 36.6697,9.4017 62.2874,36.342098 69.412,72.996038 1.5107,7.77196 1.9281,12.63556 1.9281,22.46922 0,9.83365 -0.4174,14.6972499 -1.9281,22.4692099 -5.3244,27.3924201 -20.9047,49.4717801 -44.452,62.9942801 -18.04,10.35978 -41.5,15.16887 -65.28,13.38177 z m 20.32,-38.83668 c 12.8808,-2.14674 22.4144,-6.91022 31.0662,-15.52231 7.6294,-7.5943 12.1825,-15.6892701 15.0228,-26.7087201 1.6513,-6.4062799 2.0526,-9.8825099 2.0526,-17.7775499 0,-7.89505 -0.4013,-11.37128 -2.0526,-17.77756 -2.8376,-11.00926 -7.3833,-19.09165 -15.0254,-26.71602 -8.6808,-8.66068 -17.8752,-13.23958 -31.2373,-15.55646 -4.4694,-0.77495 -15.9832,-0.77495 -20.4526,0 -13.3621,2.31688 -22.5565,6.89578 -31.2374,15.55646 -7.6421,7.62437 -12.1877,15.70676 -15.0254,26.71602 -1.6512,6.40628 -2.0526,9.88251 -2.0526,17.77756 0,7.89504 0.4014,11.37127 2.0526,17.7775499 2.8403,11.01945 7.3935,19.1144201 15.0228,26.7087201 5.8516,5.82466 10.9513,9.18296 18.5038,12.1852 3.2507,1.29219 10.0593,3.01366 13.6825,3.45943 1.584,0.19489 3.312,0.41372 3.84,0.48631 2.0973,0.2883 12.9634,-0.12921 15.84,-0.60863 z m -17.8059,-8.67146 c -14.1637,-2.37917 -27.0892,-12.34034 -34.019,-26.2171301 -13.6638,-27.3615699 -2.1148,-61.2784699 24.6758,-72.4674199 1.7,-0.71 4.652,-1.68654 6.56,-2.17008 3.2516,-0.82408 3.9003,-0.87918 10.3491,-0.87918 6.4392,0 7.1009,0.056 10.3276,0.87402 17.825,4.51879 31.6913,19.40458 35.7666,38.39613 2.5521,11.89318 1.0304,24.89207 -4.1682,35.6056199 -6.9744,14.3733601 -19.8006,24.3425701 -34.5424,26.8482201 -3.6846,0.62627 -11.2501,0.63124 -14.9495,0.01 z m -1789.87419,-51.3371 v -94.399998 h 31.49844 c 29.71372,0 31.50907,0.0317 31.68602,0.56 3.04227,9.08209 43.35048,122.4799879 43.53652,122.4799879 0.14776,0 10.09288,-27.6479999 22.10025,-61.4399899 l 21.83157,-61.439998 31.39361,-0.0816 31.3936,-0.0816 v 94.401568 94.40156 h -20.8 -20.8 V -2.0886621 c 0,-39.8743899 -0.11763,-72.4261899 -0.26139,-72.3373299 -0.14377,0.0888 -11.41177,32.7122 -25.04,72.4963299 l -24.77861,72.3347901 -15.97909,-0.0774 -15.97909,-0.0775 -23.80659,-72.1600001 C 158.98123,-41.597772 148.13581,-74.206572 147.97394,-74.373772 c -0.17913,-0.18502 -0.29432,28.0896 -0.29432,72.2399899 V 70.410218 h -20.80001 -20.8 z m 312.5549,93.83999 c 0.11811,-0.308 18.45155,-42.752 40.74093,-94.31999 l 40.52617,-93.759998 17.27706,-0.0827 17.27703,-0.0827 40.87715,93.962168 c 22.48243,51.67919 40.95322,94.16042 41.04621,94.40272 0.14259,0.37162 -3.50698,0.44056 -23.32035,0.44056 H 569.5693 l -8.13479,-20 -8.13478,-20 -36.65005,0.008 -36.65005,0.008 -7.83418,19.99175 -7.83414,19.99175 H 441.3755 c -21.73114,0 -22.94432,-0.0299 -22.74099,-0.56 z M 538.90299,-5.3497821 c -1.40342,-3.83191 -22.78637,-57.6718399 -22.90336,-57.6682499 -0.12013,0.004 -21.53725,54.6746099 -22.5913,57.6682499 -0.18659,0.52997 1.03383,0.56 22.7513,0.56 21.72048,0 22.93751,-0.0299 22.74336,-0.56 z M 1012.3922,-23.429772 c -20.61536,-51.612 -37.577,-94.092928 -37.69255,-94.402068 -0.19933,-0.53337 1.00339,-0.55787 23.57027,-0.48 l 23.78028,0.0821 23.0547,61.132188 c 12.6801,33.6227 23.2229,61.4866899 23.4285,61.9199999 0.3699,0.77977 0.3797,0.77315 0.96,-0.6479 0.3224,-0.78965 11.0269,-28.6536399 23.7877,-61.9199999 l 23.2015,-60.484288 22.3536,-0.0822 c 17.8477,-0.0656 22.3202,-9.6e-4 22.188,0.32 -3.013,7.31587 -76.0993,184.491948 -76.7601,186.082178 l -0.9642,2.32 h -16.7127 -16.7126 z m 247.9275,-0.56 v -94.399998 h 20.8 20.8 v 94.399998 94.39999 h -20.8 -20.8 z m 392,0 v -94.399998 h 20.8 20.8 v 94.399998 94.39999 h -20.8 -20.8 z m 461.44,0 v -94.399998 h 28.2849 28.2849 l 40.1151,65.599318 c 22.0633,36.07963 40.2231,65.59963 40.3551,65.6 0.132,3.7e-4 0.24,-29.51933 0.24,-65.59932 v -65.599998 h 20.8 20.8 v 94.401788 94.4018 l -27.2679,-0.0818 -27.2679,-0.0818 -41.1315,-67.1200001 c -22.6223,-36.9159899 -41.2398,-67.1199899 -41.3721,-67.1199899 -0.1323,0 -0.2406,30.24 -0.2406,67.1999899 V 70.410218 h -20.8 -20.8 z"
       style="fill:#000000;stroke-width:0.32" />
  </g>
</svg>
