<?xml version="1.0" encoding="UTF-8" standalone="no"?>
<svg
   xmlns:dc="http://purl.org/dc/elements/1.1/"
   xmlns:cc="http://creativecommons.org/ns#"
   xmlns:rdf="http://www.w3.org/1999/02/22-rdf-syntax-ns#"
   xmlns:svg="http://www.w3.org/2000/svg"
   xmlns="http://www.w3.org/2000/svg"
   xmlns:sodipodi="http://sodipodi.sourceforge.net/DTD/sodipodi-0.dtd"
   xmlns:inkscape="http://www.inkscape.org/namespaces/inkscape"
   inkscape:version="1.0 (4035a4fb49, 2020-05-01)"
   sodipodi:docname="logo_icon.svg"
   viewBox="0 0 1972.9323 2915.0232"
   height="2915.0232"
   width="1972.9324"
   id="svg833"
   version="1.1">
  <metadata
     id="metadata839">
    <rdf:RDF>
      <cc:Work
         rdf:about="">
        <dc:format>image/svg+xml</dc:format>
        <dc:type
           rdf:resource="http://purl.org/dc/dcmitype/StillImage" />
        <dc:title></dc:title>
      </cc:Work>
    </rdf:RDF>
  </metadata>
  <defs
     id="defs837" />
  <sodipodi:namedview
     inkscape:current-layer="g841"
     inkscape:window-maximized="1"
     inkscape:window-y="-9"
     inkscape:window-x="-9"
     inkscape:cy="1078.3043"
     inkscape:cx="1169.2591"
     inkscape:zoom="0.28462088"
     showgrid="false"
     id="namedview835"
     inkscape:window-height="1001"
     inkscape:window-width="1920"
     inkscape:pageshadow="2"
     inkscape:pageopacity="0"
     guidetolerance="10"
     gridtolerance="10"
     objecttolerance="10"
     borderopacity="1"
     bordercolor="#666666"
     pagecolor="#ffffff" />
  <g
     transform="translate(182.53915,481.01851)"
     id="g841"
     inkscape:label="Image"
     inkscape:groupmode="layer">
    <path
       id="path845"
       d="M 1111.8879,1741.6707 C 741.46711,1360.7768 438.45852,1049.0734 438.53548,1048.9965 c 0.19702,-0.197 477.22524,1.1811 480.43714,1.388 l 2.632,0.1694 214.91748,209.2759 c 118.2046,115.1017 214.9957,209.1976 215.0913,209.102 0.096,-0.096 0.6534,-154.8534 1.2396,-343.9062 0.5862,-189.05276 1.1296,-343.79626 1.2076,-343.87416 0.1586,-0.1586 436.1267,3.7906 436.3278,3.9525 0.07,0.057 -0.6283,244.22126 -1.5524,542.58826 -0.9242,298.3671 -1.9897,669.3016 -2.3678,824.299 -0.3781,154.9973 -0.7776,281.9034 -0.8878,282.0135 -0.1101,0.1102 -303.2717,-311.4402 -673.6925,-692.334 z M 20.500815,1169.7801 c -111.495995,-0.6992 -202.749135,-1.297 -202.784765,-1.3283 -0.0356,-0.031 -0.10763,-371.17486 -0.16,-824.76355 l -0.0952,-824.70676 3.40009,3.43822 c 4.02688,4.07206 1345.05226,1374.65343 1346.95156,1376.63823 l 1.3015,1.36 H 927.52742 685.94078 L 470.26079,691.68154 254.5808,482.94516 l -0.0802,344.10008 -0.0801,344.10006 -15.59987,-0.043 c -8.5799,-0.024 -106.82384,-0.6153 -218.319825,-1.3146 z"
       style="stroke-width:0.32" fill='#1E1552'/>
  </g>
</svg>
